<?xml version="1.0" standalone="no"?>
<!DOCTYPE svg PUBLIC "-//W3C//DTD SVG 20010904//EN"
 "http://www.w3.org/TR/2001/REC-SVG-20010904/DTD/svg10.dtd">
<svg version="1.0" xmlns="http://www.w3.org/2000/svg"
 width="752.000000pt" height="752.000000pt" viewBox="0 0 752.000000 752.000000"
 preserveAspectRatio="xMidYMid meet">
<metadata>
Created by potrace 1.16, written by Peter Selinger 2001-2019
</metadata>
<g transform="translate(0.000000,752.000000) scale(0.100000,-0.100000)"
fill="#000000" stroke="none">
<path d="M5652 4819 l-211 -232 32 -37 c18 -21 72 -80 120 -133 l88 -95 34
-119 c19 -65 31 -121 27 -124 -4 -3 -34 -28 -67 -56 l-60 -50 -135 31 c-129
31 -143 37 -325 138 -178 99 -216 115 -600 258 -225 83 -648 248 -939 366
-291 118 -534 213 -540 211 -15 -6 -909 -787 -917 -801 -4 -6 -57 -175 -119
-376 -62 -201 -117 -374 -123 -385 -8 -16 -170 -213 -275 -338 -8 -9 -13 -19
-11 -22 3 -2 88 49 190 113 101 65 190 122 198 127 8 4 -56 -74 -143 -174 -86
-101 -155 -186 -152 -188 3 -3 102 40 220 96 119 55 218 101 221 101 4 0 39
-22 78 -50 l72 -50 96 12 96 11 129 -53 128 -52 43 48 c41 46 43 52 41 101
l-3 52 39 7 38 6 -6 50 c-5 34 -26 84 -68 159 -54 95 -77 124 -193 239 -106
105 -137 130 -161 131 -16 0 -38 4 -49 9 -14 6 -2 9 41 9 l60 1 143 -121 143
-121 121 -14 c66 -8 123 -13 127 -12 4 2 -1 45 -11 97 -15 75 -17 112 -10 178
5 46 11 86 13 89 3 2 8 -35 12 -83 4 -49 20 -139 37 -201 l30 -112 -72 -132
-72 -132 32 -130 32 -131 266 -85 c147 -47 273 -85 280 -85 7 0 38 38 70 85
57 84 59 85 103 88 44 3 46 5 94 78 27 41 46 77 43 81 -4 3 -53 12 -109 20
l-101 14 -86 -92 c-101 -108 -88 -109 -204 8 l-78 79 169 122 c153 110 172
127 190 170 l20 47 1 -41 1 -42 123 -6 c267 -13 739 -28 744 -22 9 8 9 204 0
271 -7 59 -7 59 23 -34 17 -52 33 -120 36 -150 11 -122 5 -112 132 -213 64
-52 128 -102 142 -110 14 -9 110 -40 214 -69 l188 -52 72 -62 c62 -55 76 -74
110 -149 l39 -86 -26 -38 c-14 -20 -32 -64 -42 -97 -9 -33 -18 -68 -21 -77 -5
-17 6 -18 130 -18 l136 0 -6 99 c-5 68 -3 109 5 128 10 25 3 54 -62 256 l-74
227 -86 93 -85 92 -4 145 c-4 134 -7 151 -38 228 -17 46 -31 85 -29 87 2 2 72
0 154 -4 l150 -7 75 67 c41 37 95 88 120 114 l45 46 -55 162 c-60 175 -42 147
-212 341 l-37 42 97 72 97 73 42 156 c23 86 41 158 39 160 -2 2 -98 -101 -214
-228z"/>
</g>
</svg>
